<svg width="200" height="200" viewBox="0 0 200 200" xmlns="http://www.w3.org/2000/svg">
    <defs>
        <linearGradient id="grad1" x1="0%" y1="0%" x2="100%" y2="100%">
            <stop offset="0%" style="stop-color:#2B3A67;stop-opacity:1" />
            <stop offset="100%" style="stop-color:#88C24A;stop-opacity:1" />
        </linearGradient>
    </defs>
    <!-- Fundo circular -->
    <circle cx="100" cy="100" r="90" fill="url(#grad1)"/>

    <!-- Engrenagem principal -->
    <g transform="translate(100, 100)">
        <path d="M 0 -60 A 60 60 0 0 1 51.96 -30 L 51.96 -10 A 40 40 0 0 0 34.64 -20 L 34.64 -40 A 60 60 0 0 1 0 -60 Z" fill="#FFFFFF"/>
        <path d="M 51.96 -30 A 60 60 0 0 1 51.96 30 L 34.64 20 A 40 40 0 0 0 34.64 -20 L 51.96 -30 Z" fill="#FFFFFF"/>
        <path d="M 51.96 30 A 60 60 0 0 1 0 60 L 0 40 A 40 40 0 0 0 34.64 20 L 51.96 30 Z" fill="#FFFFFF"/>
        <path d="M 0 60 A 60 60 0 0 1 -51.96 30 L -34.64 20 A 40 40 0 0 0 0 40 L 0 60 Z" fill="#FFFFFF"/>
        <path d="M -51.96 30 A 60 60 0 0 1 -51.96 -30 L -34.64 -20 A 40 40 0 0 0 -34.64 20 L -51.96 30 Z" fill="#FFFFFF"/>
        <path d="M -51.96 -30 A 60 60 0 0 1 0 -60 L 0 -40 A 40 40 0 0 0 -34.64 -20 L -51.96 -30 Z" fill="#FFFFFF"/>
        <!-- Dentes da engrenagem (repetição para formar a engrenagem completa) -->
        <g id="gear-tooth">
            <path d="M 10 60 L 20 60 L 20 40 L 10 40 Z" fill="#FFFFFF"/>
        </g>
        <use href="#gear-tooth" transform="rotate(30)"/>
        <use href="#gear-tooth" transform="rotate(60)"/>
        <use href="#gear-tooth" transform="rotate(90)"/>
        <use href="#gear-tooth" transform="rotate(120)"/>
        <use href="#gear-tooth" transform="rotate(150)"/>
        <use href="#gear-tooth" transform="rotate(180)"/>
        <use href="#gear-tooth" transform="rotate(210)"/>
        <use href="#gear-tooth" transform="rotate(240)"/>
        <use href="#gear-tooth" transform="rotate(270)"/>
        <use href="#gear-tooth" transform="rotate(300)"/>
        <use href="#gear-tooth" transform="rotate(330)"/>
    </g>

    <!-- Círculo central da engrenagem -->
    <circle cx="100" cy="100" r="30" fill="#2B3A67"/>

    <!-- Texto "IndústriaSentinel" -->
    <text x="100" y="105" font-family="Arial, sans-serif" font-size="20" fill="#FFFFFF" text-anchor="middle" dominant-baseline="middle">
        IS
    </text>
</svg>